<mxfile host="app.diagrams.net" agent="Mozilla/5.0 (Macintosh; Intel Mac OS X 10_15_7) AppleWebKit/537.36 (KHTML, like Gecko) Chrome/137.0.0.0 Safari/537.36" version="27.1.6">
  <diagram name="7-2" id="SSnXviTsvHfwh3ES5WgT">
    <mxGraphModel dx="1734" dy="892" grid="1" gridSize="10" guides="1" tooltips="1" connect="1" arrows="1" fold="1" page="1" pageScale="1" pageWidth="1169" pageHeight="827" math="0" shadow="0">
      <root>
        <mxCell id="0" />
        <mxCell id="1" parent="0" />
        <mxCell id="nGo4PWqHNT3t0L39AeID-1" value="My SQL" style="rounded=1;whiteSpace=wrap;html=1;fontFamily=Verdana;fillColor=none;" parent="1" vertex="1">
          <mxGeometry x="180" y="140" width="70" height="60" as="geometry" />
        </mxCell>
        <mxCell id="nGo4PWqHNT3t0L39AeID-2" value="My SQL" style="rounded=1;whiteSpace=wrap;html=1;fontFamily=Verdana;fillColor=none;" parent="1" vertex="1">
          <mxGeometry x="180" y="260" width="70" height="60" as="geometry" />
        </mxCell>
        <mxCell id="nGo4PWqHNT3t0L39AeID-3" value="" style="rounded=1;whiteSpace=wrap;html=1;fillColor=none;" parent="1" vertex="1">
          <mxGeometry x="440" y="140" width="130" height="150" as="geometry" />
        </mxCell>
        <mxCell id="nGo4PWqHNT3t0L39AeID-4" value="웹 서버" style="sketch=0;pointerEvents=1;shadow=0;dashed=0;html=1;strokeColor=none;fillColor=#505050;labelPosition=center;verticalLabelPosition=bottom;verticalAlign=top;outlineConnect=0;align=center;shape=mxgraph.office.servers.server_farm;fillColor=#CCCBCB;fontFamily=Georgia;" parent="1" vertex="1">
          <mxGeometry x="468" y="170" width="74" height="70" as="geometry" />
        </mxCell>
        <mxCell id="nGo4PWqHNT3t0L39AeID-5" value="" style="endArrow=classic;html=1;rounded=0;strokeWidth=2;entryX=-0.025;entryY=0.398;entryDx=0;entryDy=0;entryPerimeter=0;exitX=1.007;exitY=0.432;exitDx=0;exitDy=0;exitPerimeter=0;" parent="1" source="nGo4PWqHNT3t0L39AeID-1" target="nGo4PWqHNT3t0L39AeID-3" edge="1">
          <mxGeometry width="50" height="50" relative="1" as="geometry">
            <mxPoint x="260" y="170" as="sourcePoint" />
            <mxPoint x="310" y="120" as="targetPoint" />
          </mxGeometry>
        </mxCell>
        <mxCell id="nGo4PWqHNT3t0L39AeID-6" value="" style="endArrow=classic;html=1;rounded=0;strokeWidth=2;entryX=0;entryY=0.75;entryDx=0;entryDy=0;exitX=1.007;exitY=0.432;exitDx=0;exitDy=0;exitPerimeter=0;" parent="1" target="nGo4PWqHNT3t0L39AeID-3" edge="1">
          <mxGeometry width="50" height="50" relative="1" as="geometry">
            <mxPoint x="250" y="290" as="sourcePoint" />
            <mxPoint x="437" y="324" as="targetPoint" />
          </mxGeometry>
        </mxCell>
        <mxCell id="5mU9DgxUZWPtLOi699mJ-13" value="" style="group" vertex="1" connectable="0" parent="1">
          <mxGeometry x="230" y="520" width="530" height="70" as="geometry" />
        </mxCell>
        <mxCell id="5mU9DgxUZWPtLOi699mJ-3" value="" style="rounded=0;whiteSpace=wrap;html=1;fillColor=none;strokeWidth=2;" vertex="1" parent="5mU9DgxUZWPtLOi699mJ-13">
          <mxGeometry x="20" y="20" width="510" height="50" as="geometry" />
        </mxCell>
        <mxCell id="5mU9DgxUZWPtLOi699mJ-4" value="" style="endArrow=none;html=1;rounded=0;exitX=0.039;exitY=0.994;exitDx=0;exitDy=0;exitPerimeter=0;strokeWidth=2;" edge="1" parent="5mU9DgxUZWPtLOi699mJ-13">
          <mxGeometry width="50" height="50" relative="1" as="geometry">
            <mxPoint x="29.99999999999966" y="69.70000000000005" as="sourcePoint" />
            <mxPoint x="30.110000000000014" y="20" as="targetPoint" />
          </mxGeometry>
        </mxCell>
        <mxCell id="5mU9DgxUZWPtLOi699mJ-5" value="" style="endArrow=none;html=1;rounded=0;exitX=0.039;exitY=0.994;exitDx=0;exitDy=0;exitPerimeter=0;strokeWidth=2;" edge="1" parent="5mU9DgxUZWPtLOi699mJ-13">
          <mxGeometry width="50" height="50" relative="1" as="geometry">
            <mxPoint x="290" y="69.70000000000005" as="sourcePoint" />
            <mxPoint x="290.11000000000035" y="20" as="targetPoint" />
          </mxGeometry>
        </mxCell>
        <mxCell id="5mU9DgxUZWPtLOi699mJ-6" value="" style="endArrow=none;html=1;rounded=0;exitX=0.039;exitY=0.994;exitDx=0;exitDy=0;exitPerimeter=0;strokeWidth=2;" edge="1" parent="5mU9DgxUZWPtLOi699mJ-13">
          <mxGeometry width="50" height="50" relative="1" as="geometry">
            <mxPoint x="354" y="69.70000000000005" as="sourcePoint" />
            <mxPoint x="354.11000000000035" y="20" as="targetPoint" />
          </mxGeometry>
        </mxCell>
        <mxCell id="5mU9DgxUZWPtLOi699mJ-7" value="" style="endArrow=none;html=1;rounded=0;exitX=0.039;exitY=0.994;exitDx=0;exitDy=0;exitPerimeter=0;strokeWidth=2;" edge="1" parent="5mU9DgxUZWPtLOi699mJ-13">
          <mxGeometry width="50" height="50" relative="1" as="geometry">
            <mxPoint x="420" y="70" as="sourcePoint" />
            <mxPoint x="420.11000000000035" y="20.299999999999955" as="targetPoint" />
          </mxGeometry>
        </mxCell>
        <mxCell id="5mU9DgxUZWPtLOi699mJ-8" value="&lt;b&gt;1비트&lt;/b&gt;" style="text;html=1;align=center;verticalAlign=middle;resizable=0;points=[];autosize=1;strokeColor=none;fillColor=none;fontSize=8;" vertex="1" parent="5mU9DgxUZWPtLOi699mJ-13">
          <mxGeometry width="40" height="20" as="geometry" />
        </mxCell>
        <mxCell id="5mU9DgxUZWPtLOi699mJ-9" value="&lt;b&gt;41비트&lt;/b&gt;" style="text;html=1;align=center;verticalAlign=middle;resizable=0;points=[];autosize=1;strokeColor=none;fillColor=none;fontSize=8;" vertex="1" parent="5mU9DgxUZWPtLOi699mJ-13">
          <mxGeometry x="145" width="50" height="20" as="geometry" />
        </mxCell>
        <mxCell id="5mU9DgxUZWPtLOi699mJ-10" value="&lt;b&gt;5비트&lt;/b&gt;" style="text;html=1;align=center;verticalAlign=middle;resizable=0;points=[];autosize=1;strokeColor=none;fillColor=none;fontSize=8;" vertex="1" parent="5mU9DgxUZWPtLOi699mJ-13">
          <mxGeometry x="300" width="40" height="20" as="geometry" />
        </mxCell>
        <mxCell id="5mU9DgxUZWPtLOi699mJ-11" value="&lt;b&gt;5비트&lt;/b&gt;" style="text;html=1;align=center;verticalAlign=middle;resizable=0;points=[];autosize=1;strokeColor=none;fillColor=none;fontSize=8;" vertex="1" parent="5mU9DgxUZWPtLOi699mJ-13">
          <mxGeometry x="370" width="40" height="20" as="geometry" />
        </mxCell>
        <mxCell id="5mU9DgxUZWPtLOi699mJ-12" value="&lt;b&gt;12비트&lt;/b&gt;" style="text;html=1;align=center;verticalAlign=middle;resizable=0;points=[];autosize=1;strokeColor=none;fillColor=none;fontSize=8;" vertex="1" parent="5mU9DgxUZWPtLOi699mJ-13">
          <mxGeometry x="455" width="50" height="20" as="geometry" />
        </mxCell>
        <mxCell id="5mU9DgxUZWPtLOi699mJ-14" value="타임스탬프" style="text;html=1;align=center;verticalAlign=middle;resizable=0;points=[];autosize=1;strokeColor=none;fillColor=none;fontSize=10;fontStyle=1" vertex="1" parent="5mU9DgxUZWPtLOi699mJ-13">
          <mxGeometry x="135" y="30" width="70" height="30" as="geometry" />
        </mxCell>
        <mxCell id="5mU9DgxUZWPtLOi699mJ-15" value="데이터센터 ID" style="text;html=1;align=center;verticalAlign=middle;resizable=0;points=[];autosize=1;strokeColor=none;fillColor=none;fontSize=9;fontStyle=1" vertex="1" parent="5mU9DgxUZWPtLOi699mJ-13">
          <mxGeometry x="285" y="35" width="70" height="20" as="geometry" />
        </mxCell>
        <mxCell id="5mU9DgxUZWPtLOi699mJ-16" value="서버&lt;span style=&quot;background-color: transparent; color: light-dark(rgb(0, 0, 0), rgb(255, 255, 255));&quot;&gt;&amp;nbsp;ID&lt;/span&gt;" style="text;html=1;align=center;verticalAlign=middle;resizable=0;points=[];autosize=1;strokeColor=none;fillColor=none;fontSize=9;fontStyle=1" vertex="1" parent="5mU9DgxUZWPtLOi699mJ-13">
          <mxGeometry x="360" y="35" width="50" height="20" as="geometry" />
        </mxCell>
        <mxCell id="5mU9DgxUZWPtLOi699mJ-17" value="일련번호" style="text;html=1;align=center;verticalAlign=middle;resizable=0;points=[];autosize=1;strokeColor=none;fillColor=none;fontSize=10;fontStyle=1" vertex="1" parent="5mU9DgxUZWPtLOi699mJ-13">
          <mxGeometry x="445" y="30" width="60" height="30" as="geometry" />
        </mxCell>
      </root>
    </mxGraphModel>
  </diagram>
</mxfile>
